/vscmnt/brussel_pixiu_data/_data_brussel/112/vsc11236/PredSimResults/SUBJ09mtu3D/weighted-trackIG/worker_05.mot
version=1
nRows=10
nColumns=50
inDegrees=yes
endheader
                time	         pelvis_tilt	         pelvis_list	     pelvis_rotation	           pelvis_tx	           pelvis_ty	           pelvis_tz	       hip_flexion_r	     hip_adduction_r	      hip_rotation_r	        knee_angle_r	       ankle_angle_r	         mtp_angle_r	       hip_flexion_l	     hip_adduction_l	      hip_rotation_l	        knee_angle_l	       ankle_angle_l	         mtp_angle_l	    lumbar_extension	      lumbar_bending	     lumbar_rotation	 ercspn_r/activation	 intobl_r/activation	 extobl_r/activation	    abd_r/activation	    add_r/activation	hamstrings_r/activation	bifemsh_r/activation	glut_max_r/activation	iliopsoas_r/activation	rect_fem_r/activation	  vasti_r/activation	gastroc_r/activation	 soleus_r/activation	tib_ant_r/activation	 ercspn_l/activation	 intobl_l/activation	 extobl_l/activation	    abd_l/activation	    add_l/activation	hamstrings_l/activation	bifemsh_l/activation	glut_max_l/activation	iliopsoas_l/activation	rect_fem_l/activation	  vasti_l/activation	gastroc_l/activation	 soleus_l/activation	tib_ant_l/activation	
          1.32754361	         -7.97104993	         -4.73742453	          8.18649331	          1.46029797	          0.98285879	         -0.01455654	         31.22736715	          1.25849105	         -5.42011552	         -2.14274776	          6.43444311	          0.21648233	         -9.45716157	         -4.79803643	          6.73456702	         -6.41098467	         11.37087208	         26.44319461	          0.07014364	          2.84533775	         -3.40324525	          0.08545943	          0.12994266	          0.03317742	          0.01221256	          0.08428321	          0.11011147	          0.19555144	          0.00999999	          0.10576730	          0.00999999	          0.00999999	          0.01128978	          0.00999999	          0.26647848	          0.03424298	          0.00999999	          0.00999999	          0.06070704	          0.02013558	          0.02502686	          0.14256738	          0.06133344	          0.49616899	          0.00999999	          0.00999999	          0.35656554	          0.29584899	          0.01491468	
          1.34081905	         -8.07993568	         -4.64279769	          8.18924886	          1.47822708	          0.98049136	         -0.01414119	         31.44618663	          1.34584283	         -5.28707706	         -3.97811678	          5.99235384	          0.21453665	         -9.78894623	         -4.73695915	          6.32541452	         -7.57455484	         10.81153690	         28.35283893	          0.37915211	          3.14034756	         -3.48634399	          0.06997660	          0.10640073	          0.02716661	          0.00999999	          0.13719806	          0.09580761	          0.16012305	          0.07509264	          0.08660526	          0.00999999	          0.00999999	          0.02248282	          0.01491468	          0.27869028	          0.07916793	          0.00999999	          0.00999999	          0.04970864	          0.05333161	          0.02049270	          0.11673820	          0.05022155	          0.51124604	          0.00999999	          0.00999999	          0.33183502	          0.27978775	          0.01221256	
          1.35409448	         -8.16787067	         -4.53899887	          8.14003059	          1.49662286	          0.97840065	         -0.01366487	         31.44515419	          1.41283337	         -5.12169094	         -5.66974074	          5.50595707	          0.19996919	         -9.98319807	         -4.64964017	          5.89180044	         -9.07242421	         10.10212230	         30.34772011	          0.71324971	          3.43719491	         -3.53938915	          0.06157565	          0.08712392	          0.02224479	          0.06507461	          0.12496357	          0.08777170	          0.13111328	          0.11627939	          0.07091484	          0.00999999	          0.00999999	          0.01840957	          0.01221256	          0.32982329	          0.07762002	          0.00999999	          0.00999999	          0.04070284	          0.04806558	          0.02367020	          0.09558854	          0.04112283	          0.49972592	          0.00999999	          0.00999999	          0.30389100	          0.26019572	          0.00999999	
          1.36736992	         -8.23795132	         -4.42270259	          8.04044888	          1.51515775	          0.97685452	         -0.01309479	         31.24916723	          1.48489773	         -4.99074689	         -7.02950440	          4.87117948	          0.17496995	         -9.93515717	         -4.52818919	          5.44750522	        -11.03324693	          9.17518206	         32.42857290	          1.03893504	          3.72870160	         -3.55842381	          0.07050018	          0.07133953	          0.01821466	          0.11926483	          0.13896692	          0.07686170	          0.10735927	          0.16447402	          0.05806708	          0.00999999	          0.00999999	          0.01507427	          0.00999999	          0.36267822	          0.10310290	          0.00999999	          0.00999999	          0.03332864	          0.05375463	          0.02165046	          0.07827060	          0.03367253	          0.48009961	          0.00999999	          0.01221256	          0.25436141	          0.21903824	          0.00999999	
          1.38064536	         -8.28916804	         -4.30048310	          7.89441217	          1.53355081	          0.97603042	         -0.01244199	         30.95589821	          1.57030696	         -4.88703803	         -8.27341425	          4.40494629	          0.14594259	         -9.57425360	         -4.37685618	          4.99162142	        -13.54086124	          8.00720095	         34.48851740	          1.33079475	          4.02461824	         -3.54047446	          0.06652351	          0.05841483	          0.01491468	          0.15310402	          0.14716631	          0.06573357	          0.08790880	          0.19364871	          0.04754696	          0.00999999	          0.01000000	          0.01234324	          0.01137563	          0.38153842	          0.13087833	          0.00999999	          0.00999999	          0.02729043	          0.06546789	          0.02214829	          0.06409019	          0.02757202	          0.43947005	          0.00999999	          0.00999999	          0.20827832	          0.17935471	          0.00999999	
          1.39392079	         -8.32006038	         -4.17601508	          7.70458250	          1.55158814	          0.97598585	         -0.01172634	         30.61756950	          1.66773102	         -4.78900731	         -9.47187384	          4.12551633	          0.12657720	         -8.86269057	         -4.20080940	          4.51836918	        -16.62992135	          6.60091512	         36.32479937	          1.57064674	          4.33035560	         -3.48392402	          0.06473723	          0.04783171	          0.01221256	          0.16471920	          0.12423450	          0.06040602	          0.07198222	          0.19853636	          0.03893280	          0.00999999	          0.09229283	          0.01010699	          0.00999999	          0.38951527	          0.14640566	          0.00999999	          0.00999999	          0.02234618	          0.08926580	          0.03090286	          0.05247886	          0.02257675	          0.37341460	          0.00999999	          0.00999999	          0.17054418	          0.14686071	          0.00999999	
          1.40719623	         -8.33117822	         -4.03897052	          7.47396739	          1.56915849	          0.97675530	         -0.01099173	         30.18630612	          1.76922239	         -4.66586343	        -10.50794933	          3.96517022	          0.10729300	         -7.80889481	         -3.99570841	          4.01688976	        -20.25412113	          5.01618309	         37.51521925	          1.75043709	          4.63646164	         -3.38850863	          0.05300868	          0.03916596	          0.00999999	          0.16185408	          0.10172672	          0.05467387	          0.05894107	          0.18459178	          0.03187928	          0.00999999	          0.16358646	          0.00999999	          0.00999999	          0.38750869	          0.15818204	          0.00999999	          0.00999999	          0.01829768	          0.10398263	          0.02716661	          0.05187333	          0.01848648	          0.30576243	          0.00999999	          0.00999999	          0.13964640	          0.12025370	          0.00999999	
          1.42047167	         -8.32377091	         -3.87588191	          7.20423151	          1.58624611	          0.97831936	         -0.01026675	         29.60733800	          1.86508613	         -4.49261874	        -11.29166787	          3.95546614	          0.09376125	         -6.45320810	         -3.76044048	          3.48554156	        -24.31864888	          3.31503429	         37.66782902	          1.87076342	          4.92676383	         -3.25510162	          0.04340500	          0.03207020	          0.00999999	          0.15436613	          0.08329672	          0.05238570	          0.04826262	          0.16413246	          0.02610365	          0.00999999	          0.20402441	          0.00999999	          0.00999999	          0.37549384	          0.16458915	          0.00999999	          0.00999999	          0.01498266	          0.11327686	          0.02224479	          0.06547832	          0.01513726	          0.25036693	          0.00999999	          0.00999999	          0.11434642	          0.09846713	          0.00999999	
          1.43374710	         -8.29953761	         -3.67345606	          6.89599284	          1.60288607	          0.98058045	         -0.00957284	         28.85293274	          1.94166447	         -4.25399735	        -11.77445347	          4.06824654	          0.08759410	         -4.85689263	         -3.49152304	          2.94762343	        -28.66067129	          1.39331277	         36.80665990	          1.93728122	          5.18465535	         -3.08428416	          0.03554124	          0.02625998	          0.00999999	          0.14814162	          0.06820571	          0.04955189	          0.03951880	          0.14337338	          0.02137441	          0.00999999	          0.21596653	          0.00999999	          0.00999999	          0.35833075	          0.16422503	          0.00999999	          0.00999999	          0.01226822	          0.12207269	          0.01821466	          0.07219687	          0.01239481	          0.20500753	          0.00999999	          0.00999999	          0.09363009	          0.08062767	          0.02718009	
          1.44702254	         -8.26008967	         -3.42070545	          6.54887972	          1.61908683	          0.98336370	         -0.00892833	         27.94025383	          1.98302695	         -3.93750213	        -11.98208437	          4.27048773	          0.08855226	         -3.07995794	         -3.17836769	          2.43178721	        -33.15158827	         -0.59269004	         34.68150033	          1.95133643	          5.39685963	         -2.87623289	          0.02910218	          0.02150242	          0.00999999	          0.14058330	          0.05584876	          0.04563341	          0.03235911	          0.11739818	          0.01750197	          0.00999999	          0.20473716	          0.00999999	          0.00999999	          0.33457891	          0.16707447	          0.00999999	          0.04626254	          0.01004557	          0.12340600	          0.01491468	          0.05911684	          0.01014922	          0.16786596	          0.00999999	          0.00999999	          0.07666696	          0.06602022	          0.08840019	
